<?xml version="1.0" encoding="UTF-8" standalone="no"?>
<svg width="160px" height="66px" viewBox="0 0 234 66" version="1.1" xmlns="http://www.w3.org/2000/svg" xmlns:xlink="http://www.w3.org/1999/xlink" xmlns:sketch="http://www.bohemiancoding.com/sketch/ns">
    <!-- Generator: Sketch 3.5 (25232) - http://www.bohemiancoding.com/sketch -->
    <title>Cardinal-Logo</title>
    <desc>Created with Sketch.</desc>
    <defs></defs>
    <g id="Page-1" stroke="none" stroke-width="1" fill="none" fill-rule="evenodd" sketch:type="MSPage">
        <g id="Cardinal-Logo" sketch:type="MSLayerGroup">
            <path d="M229.1,26.3 L233.9,26.3 L233.9,61.7 L229.1,61.7 L229.1,26.3 L229.1,26.3 Z" id="l" fill="#808285" sketch:type="MSShapeGroup"></path>
            <path d="M218.1,58.7 C217.2,59.9 216,60.9 214.5,61.5 C213,62.1 211.5,62.4 209.9,62.4 C208.9,62.4 207.9,62.3 206.9,62 C205.9,61.7 205,61.3 204.1,60.7 C203.3,60.1 202.6,59.3 202.1,58.3 C201.6,57.3 201.3,56.1 201.3,54.7 C201.3,52 202.2,49.9 204.1,48.3 C206,46.7 208.6,45.9 212.1,45.9 C212.7,45.9 213.3,45.9 213.9,46 C214.5,46 215.1,46.1 215.7,46.1 C216.3,46.1 216.8,46.2 217.2,46.2 C217.6,46.2 217.9,46.3 218.1,46.3 L218.1,45.4 C218.1,43.6 217.5,42.2 216.4,41.4 C215.3,40.6 213.8,40.2 211.9,40.2 C210,40.2 208.5,40.5 207.4,41 C206.3,41.5 205.4,42 204.6,42.6 L202.4,39.4 C202.8,39 203.3,38.7 203.9,38.3 C204.5,37.9 205.2,37.6 206,37.3 C206.8,37 207.7,36.8 208.8,36.6 C209.8,36.4 211,36.3 212.4,36.3 C215.6,36.3 218.1,37.1 219.9,38.6 C221.7,40.1 222.6,42.3 222.6,45.1 L222.6,56.8 L222.6,59.5 C222.6,60.4 222.6,61.1 222.7,61.7 L218.2,61.7 L218.1,58.7 L218.1,58.7 Z M218.1,50 C218,50 217.7,49.9 217.3,49.9 C216.9,49.8 216.4,49.8 215.9,49.8 C215.4,49.8 214.8,49.7 214.2,49.7 C213.6,49.7 213,49.6 212.4,49.6 C211.1,49.6 210,49.8 209.1,50.1 C208.3,50.4 207.6,50.8 207.1,51.3 C206.6,51.8 206.3,52.3 206.1,52.9 C205.9,53.5 205.8,54 205.8,54.6 C205.8,55.9 206.3,57 207.2,57.6 C208.1,58.3 209.4,58.6 211,58.6 C211.9,58.6 212.8,58.4 213.6,58.1 C214.4,57.8 215.2,57.4 215.8,56.8 C216.4,56.3 216.9,55.7 217.3,54.9 C217.7,54.2 217.9,53.5 217.9,52.7 L217.9,50 L218.1,50 Z" id="Shape" fill="#808285" sketch:type="MSShapeGroup"></path>
            <path d="M173.8,42.4 L173.8,39.6 C173.8,38.8 173.8,38 173.7,37.1 L178.3,37.1 L178.5,40.8 C178.8,40.4 179.2,39.9 179.7,39.4 C180.2,38.9 180.7,38.4 181.4,38 C182.1,37.6 182.9,37.2 183.8,36.9 C184.7,36.6 185.7,36.5 186.8,36.5 C190,36.5 192.4,37.4 194,39.3 C195.6,41.2 196.3,43.7 196.3,46.9 L196.3,61.7 L191.5,61.7 L191.5,47.3 C191.5,45 191,43.3 190,42.2 C189,41.1 187.6,40.6 185.8,40.6 C184.4,40.6 183.3,40.9 182.4,41.4 C181.5,42 180.7,42.7 180.2,43.6 C179.7,44.5 179.3,45.5 179,46.7 C178.8,47.9 178.6,49 178.6,50.2 L178.6,61.7 L173.8,61.7 L173.8,42.4 L173.8,42.4 Z" id="Shape" fill="#808285" sketch:type="MSShapeGroup"></path>
            <rect id="Rectangle-path" fill="#808285" sketch:type="MSShapeGroup" x="162.3" y="37.1" width="4.8" height="24.7"></rect>
            <circle id="Oval" fill="#808285" sketch:type="MSShapeGroup" cx="164.7" cy="30.4" r="3"></circle>
            <path d="M150.7,58.6 C150.5,58.8 150.2,59.1 149.8,59.6 C149.4,60 148.9,60.5 148.2,60.9 C147.5,61.3 146.7,61.7 145.8,62 C144.9,62.3 143.8,62.5 142.6,62.5 C141,62.5 139.6,62.2 138.3,61.6 C137,61 135.8,60.2 134.8,59.1 C133.8,58 133,56.7 132.5,55.1 C132,53.5 131.7,51.8 131.7,49.8 C131.7,47.5 132.1,45.5 132.9,43.8 C133.7,42.1 134.7,40.7 136,39.7 C137.3,38.6 138.6,37.8 140.1,37.3 C141.6,36.8 143,36.6 144.3,36.6 C146.1,36.6 147.4,36.8 148.4,37.2 C149.4,37.6 150.2,37.9 150.7,38.2 L150.7,26.5 L155.5,26.5 L155.5,56.5 L155.5,59.3 C155.5,60.1 155.5,60.9 155.6,61.8 L150.9,61.8 L150.7,58.6 L150.7,58.6 Z M150.7,42.5 C150.3,42.2 149.7,41.8 148.7,41.4 C147.7,40.9 146.4,40.7 144.6,40.7 C143.4,40.7 142.4,40.9 141.4,41.3 C140.4,41.7 139.6,42.3 138.9,43.1 C138.2,43.9 137.6,44.8 137.2,46 C136.8,47.1 136.6,48.4 136.6,49.8 C136.6,51 136.7,52.1 137,53.1 C137.3,54.1 137.7,55.1 138.3,55.8 C138.9,56.6 139.6,57.2 140.5,57.6 C141.4,58 142.5,58.3 143.7,58.3 C144.9,58.3 146,58.1 146.9,57.6 C147.8,57.1 148.5,56.6 149,55.9 C149.5,55.2 150,54.5 150.2,53.6 C150.5,52.8 150.6,52 150.6,51.3 L150.6,42.5 L150.7,42.5 Z" id="Shape" fill="#808285" sketch:type="MSShapeGroup"></path>
            <path d="M114.9,42.1 L114.9,39.4 C114.9,38.6 114.9,37.9 114.8,37 L119.4,37 L119.6,41 C119.9,40.6 120.3,40.1 120.7,39.6 C121.2,39.1 121.7,38.6 122.4,38.2 C123.1,37.8 123.8,37.4 124.7,37.1 C125.6,36.8 126.6,36.7 127.7,36.7 C128.2,36.7 128.7,36.7 129.2,36.8 C129.6,36.9 130.1,37 130.4,37.1 L129.3,41.6 C128.7,41.4 127.8,41.2 126.9,41.2 C125.9,41.2 124.9,41.4 124.1,41.8 C123.2,42.2 122.5,42.7 121.8,43.4 C121.2,44.1 120.7,44.9 120.3,45.8 C119.9,46.7 119.7,47.7 119.7,48.7 L119.7,61.7 L114.9,61.7 L114.9,42.1 L114.9,42.1 Z" id="Shape" fill="#808285" sketch:type="MSShapeGroup"></path>
            <path d="M103.9,58.7 C103,59.9 101.8,60.9 100.3,61.5 C98.8,62.1 97.3,62.4 95.7,62.4 C94.7,62.4 93.7,62.3 92.7,62 C91.7,61.7 90.8,61.3 89.9,60.7 C89.1,60.1 88.4,59.3 87.9,58.3 C87.4,57.3 87.1,56.1 87.1,54.7 C87.1,52 88,49.9 89.9,48.3 C91.8,46.7 94.4,45.9 97.9,45.9 C98.5,45.9 99.1,45.9 99.7,46 C100.3,46 100.9,46.1 101.5,46.1 C102.1,46.1 102.6,46.2 103,46.2 C103.4,46.2 103.7,46.3 103.9,46.3 L103.9,45.4 C103.9,43.6 103.3,42.2 102.2,41.4 C101.1,40.6 99.6,40.2 97.7,40.2 C95.8,40.2 94.3,40.5 93.2,41 C92.1,41.5 91.2,42 90.4,42.6 L88.2,39.4 C88.6,39 89.1,38.7 89.7,38.3 C90.3,37.9 91,37.6 91.8,37.3 C92.6,37 93.5,36.8 94.6,36.6 C95.6,36.4 96.8,36.3 98.2,36.3 C101.4,36.3 103.9,37.1 105.7,38.6 C107.5,40.1 108.4,42.3 108.4,45.1 L108.4,56.8 L108.4,59.5 C108.4,60.4 108.4,61.1 108.5,61.7 L104,61.7 L103.9,58.7 L103.9,58.7 Z M103.8,50 C103.7,50 103.4,49.9 103,49.9 C102.6,49.8 102.1,49.8 101.6,49.8 C101.1,49.8 100.5,49.7 99.9,49.7 C99.3,49.7 98.7,49.6 98.2,49.6 C96.9,49.6 95.8,49.8 94.9,50.1 C94.1,50.4 93.4,50.8 92.9,51.3 C92.4,51.8 92.1,52.3 91.9,52.9 C91.7,53.5 91.6,54 91.6,54.6 C91.6,55.9 92.1,57 93,57.6 C93.9,58.3 95.2,58.6 96.8,58.6 C97.7,58.6 98.6,58.4 99.4,58.1 C100.2,57.8 101,57.4 101.6,56.8 C102.2,56.3 102.7,55.7 103.1,54.9 C103.5,54.2 103.7,53.5 103.7,52.7 L103.7,50 L103.8,50 Z" id="Shape" fill="#808285" sketch:type="MSShapeGroup"></path>
            <path d="M83.8,58.3 C82.7,59.5 81.4,60.5 79.7,61.3 C78.1,62.1 76.2,62.4 74.1,62.4 C72.1,62.4 70.3,62.1 68.7,61.4 C67.1,60.7 65.7,59.8 64.6,58.7 C63.5,57.6 62.6,56.2 62,54.6 C61.4,53 61.1,51.2 61.1,49.3 C61.1,47.5 61.4,45.8 62.1,44.2 C62.7,42.6 63.6,41.2 64.8,40 C65.9,38.8 67.3,37.9 68.9,37.2 C70.5,36.5 72.2,36.2 74.1,36.2 C76.2,36.2 78,36.6 79.6,37.3 C81.2,38 82.6,39 83.7,40.3 L80.6,43.3 C79.9,42.4 79,41.7 77.9,41.1 C76.8,40.6 75.6,40.3 74.1,40.3 C72.8,40.3 71.7,40.5 70.7,41 C69.7,41.5 68.8,42.1 68.2,43 C67.5,43.8 67,44.8 66.6,45.9 C66.2,47 66,48.1 66,49.3 C66,50.4 66.2,51.5 66.6,52.6 C67,53.7 67.5,54.6 68.2,55.5 C68.9,56.3 69.7,57 70.7,57.5 C71.7,58 72.8,58.2 74.1,58.2 C75.5,58.2 76.8,57.9 78,57.4 C79.1,56.9 80.1,56.1 80.8,55.2 L83.8,58.3 L83.8,58.3 Z" id="Shape" fill="#808285" sketch:type="MSShapeGroup"></path>
            <path d="M63.8,19.2 L55,14.1 L50.7,11.6 L50.7,11.6 C48.5,10.3 45,10.9 42.7,12.9 L32.3,22.1 C30.1,24.1 29.5,27.1 31.1,28.9 L40,39.3 C40.5,39.8 41,40.3 41.6,40.6 C44,42 47.4,41.8 49.8,39.7 L64,27.5 C67,25.1 66.8,21.3 63.8,19.2 L63.8,19.2 Z" id="Shape" fill="#0088CE" sketch:type="MSShapeGroup"></path>
            <path d="M39.4,5.1 L32.2,0.9 C32.2,0.9 30.3,-0.3 27.5,2.1 L3.8,23.3 C3.8,23.3 -0.4,26.5 0.6,29.3 L11.6,61.5 C11.6,61.5 13.3,68.3 18.8,65.1 L32.5,53.3 C32.5,53.3 37.3,50 35.1,44.3 C35.1,44.3 34.8,43.5 34.4,43.1 L28.8,35.5 C28.8,35.5 25.2,30.3 25.9,25.7 C25.9,25.7 26.2,21.7 31.4,16.4 L37.8,10.6 C37.8,10.6 40.1,8.8 40.1,6.9 C40.2,6.9 40.4,5.9 39.4,5.1 L39.4,5.1 Z" id="Shape" fill="#172952" sketch:type="MSShapeGroup"></path>
        </g>
    </g>
</svg>